<?xml version="1.0" standalone="no"?>
<!DOCTYPE svg PUBLIC "-//W3C//DTD SVG 20010904//EN"
 "http://www.w3.org/TR/2001/REC-SVG-20010904/DTD/svg10.dtd">
<svg version="1.0" xmlns="http://www.w3.org/2000/svg"
 width="512.000000pt" height="512.000000pt" viewBox="0 0 512.000000 512.000000"
 preserveAspectRatio="xMidYMid meet">
<metadata>
Created by potrace 1.14, written by Peter Selinger 2001-2017
</metadata>
<g transform="translate(0.000000,512.000000) scale(0.100000,-0.100000)"
fill="#000000" stroke="none">
<path d="M1510 3430 l0 -300 104 0 c140 0 152 5 165 72 5 29 13 80 16 113 3
33 8 70 11 83 l4 22 310 0 310 0 0 -1044 c0 -986 -1 -1045 -17 -1050 -10 -2
-63 -14 -118 -26 -130 -27 -135 -32 -135 -156 l0 -94 455 0 455 0 0 99 c0 75
-4 103 -15 114 -15 15 -64 28 -187 49 l-68 12 0 1043 0 1043 310 0 310 0 4
-22 c2 -13 11 -68 19 -123 20 -132 24 -135 168 -135 l109 0 0 300 0 300 -1105
0 -1105 0 0 -300z"/>
</g>
</svg>
